<svg id="visual" viewBox="0 0 900 600" width="900" height="600" xmlns="http://www.w3.org/2000/svg" xmlns:xlink="http://www.w3.org/1999/xlink" version="1.1"><rect x="0" y="0" width="900" height="600" fill="#081022"></rect><path d="M0 435L21.5 452.5C43 470 86 505 128.8 508.2C171.7 511.3 214.3 482.7 257.2 481.8C300 481 343 508 385.8 519.7C428.7 531.3 471.3 527.7 514.2 511.8C557 496 600 468 642.8 465.8C685.7 463.7 728.3 487.3 771.2 488C814 488.7 857 466.3 878.5 455.2L900 444L900 601L878.5 601C857 601 814 601 771.2 601C728.3 601 685.7 601 642.8 601C600 601 557 601 514.2 601C471.3 601 428.7 601 385.8 601C343 601 300 601 257.2 601C214.3 601 171.7 601 128.8 601C86 601 43 601 21.5 601L0 601Z" fill="#000000" stroke-linecap="round" stroke-linejoin="miter"></path></svg>